        <svg
            width="73"
            height="41"
            viewBox="0 0 73 41"
            fill="none"
            xmlns="http://www.w3.org/2000/svg"
          >
            <g clip-path="url(#clip0_9631_4519)">
              <path
                d="M0 15.6632C1.58067 15.6632 3.16134 15.6802 4.73958 15.6632C5.03626 15.6632 5.15055 15.7286 5.12867 16.0386C5.10192 16.4091 5.12867 16.782 5.12867 17.2639C6.58775 15.9223 8.12951 15.0845 10.109 15.2758C12.0252 15.4719 13.6156 16.1863 14.6346 17.925C15.0762 17.4397 15.5489 16.9835 16.0499 16.5592C18.7249 14.358 22.3871 15.2564 23.9289 16.8546C24.7886 17.7271 25.2765 18.8967 25.2907 20.1189C25.3418 22.2983 25.3199 24.4923 25.3248 26.679C25.3248 27.8389 25.3248 28.9988 25.3248 30.1588C25.3248 30.4009 25.2591 30.4639 25.0208 30.4639C23.5131 30.4542 22.0054 30.4542 20.4976 30.4639C20.2277 30.4639 20.1864 30.3719 20.1864 30.1321C20.1864 27.4854 20.1864 24.841 20.1864 22.1942C20.1926 21.8684 20.1583 21.543 20.0842 21.2256C19.7535 19.9034 18.6495 19.1939 17.205 19.3658C16.011 19.5111 15.2206 20.4652 15.2182 21.7874C15.2182 24.5528 15.2182 27.3207 15.2182 30.0861C15.2182 30.3864 15.1428 30.4687 14.8388 30.4663C13.3798 30.4486 11.9207 30.4486 10.4616 30.4663C10.1649 30.4663 10.0749 30.3985 10.0774 30.0934C10.0774 27.5556 10.0774 25.0081 10.0774 22.4824C10.1065 22.0236 10.0705 21.563 9.97038 21.1142C9.60804 19.8574 8.5113 19.1987 7.11301 19.3731C5.919 19.516 5.1311 20.4676 5.12623 21.8358C5.11164 24.4705 5.12623 27.1027 5.12623 29.7374C5.12623 30.4639 5.12623 30.4639 4.37967 30.4639H0.0024318L0 15.6632Z"
                fill="white"
              />
              <path
                d="M72.9394 37.4083C72.9199 37.435 72.8883 37.4616 72.881 37.4931C72.4628 39.1712 71.2444 40.1568 69.4765 40.2149C68.6765 40.2392 67.874 40.2149 67.0715 40.2149C66.8672 40.2149 66.7991 40.1593 66.8015 39.951C66.8015 37.8733 66.8015 35.7956 66.8015 33.7203C66.8015 33.6016 66.7748 33.4781 66.9693 33.4781C68.0004 33.5072 69.0412 33.3716 70.0626 33.5459C71.5557 33.8002 72.5284 34.6574 72.8616 36.1637C72.8616 36.1927 72.9029 36.2169 72.9248 36.2411L72.9394 37.4083ZM68.0053 36.8078C68.0053 37.4834 68.0053 38.159 68.0053 38.8346C68.0053 39.0405 68.0418 39.147 68.2825 39.1349C68.6837 39.1156 69.085 39.1349 69.4984 39.1204C70.7581 39.0502 71.6092 38.2389 71.704 37.0378C71.7718 36.4788 71.6221 35.9151 71.2857 35.4625C70.9492 35.01 70.4515 34.7028 69.8948 34.6042C69.4084 34.5049 68.9002 34.5824 68.4041 34.5509C68.1098 34.5315 67.998 34.609 68.0126 34.9238C68.0223 35.5607 68.0053 36.1879 68.0053 36.8078Z"
                fill="white"
              />
              <path
                d="M39.7525 28.7752C39.4777 29.0174 39.2662 29.2329 39.023 29.4194C35.6987 32.0831 30.6454 31.037 28.4933 27.223C26.6913 24.0289 27.2288 19.7863 29.7481 17.2945C31.0462 16.0377 32.7673 15.3064 34.5767 15.2428C36.3862 15.1792 38.1547 15.788 39.5385 16.9507C39.5677 16.9749 39.5969 16.9943 39.6552 17.0354C39.7012 16.6919 39.711 16.3446 39.6844 15.999C39.6844 15.7786 39.7185 15.6769 39.9787 15.6769C41.4994 15.6899 43.0184 15.6899 44.5359 15.6769C44.779 15.6769 44.8374 15.769 44.8374 15.9942C44.8374 20.7162 44.8374 25.4391 44.8374 30.1628C44.8374 30.405 44.7693 30.4703 44.5286 30.4679C43.0354 30.455 41.5407 30.455 40.0443 30.4679C39.8012 30.4679 39.7379 30.388 39.7477 30.1604C39.7647 29.7221 39.7525 29.2862 39.7525 28.7752ZM36.3723 26.5377C38.3664 26.5377 39.8109 25.0848 39.8157 23.1015C39.828 22.6414 39.7476 22.1836 39.5792 21.755C39.4109 21.3264 39.1581 20.9357 38.8356 20.606C38.5132 20.2763 38.1277 20.0143 37.7019 19.8354C37.2761 19.6564 36.8187 19.5642 36.3565 19.5642C35.8944 19.5642 35.4369 19.6564 35.0111 19.8354C34.5853 20.0143 34.1998 20.2763 33.8774 20.606C33.555 20.9357 33.3021 21.3264 33.1338 21.755C32.9654 22.1836 32.885 22.6414 32.8973 23.1015C32.9021 25.138 34.3247 26.5377 36.3723 26.5377Z"
                fill="white"
              />
              <path
                d="M59.9075 0.000208279C66.1621 0.0147377 71.2932 4.20164 72.4847 10.2047C72.6453 10.9085 72.522 11.6469 72.1413 12.261C71.7607 12.8752 71.1531 13.3159 70.4493 13.4884C70.0973 13.5775 69.7307 13.5943 69.3719 13.5377C69.0132 13.4812 68.6697 13.3525 68.3626 13.1594C68.0554 12.9664 67.7909 12.713 67.5853 12.4149C67.3796 12.1167 67.2371 11.78 67.1664 11.4252C66.77 9.71314 66.0283 8.21419 64.6446 7.093C62.4973 5.35673 60.0655 4.88937 57.4708 5.84347C54.8761 6.79757 53.3197 8.71788 52.7993 11.447C52.7409 11.7666 52.7124 12.0908 52.7142 12.4156C52.7142 12.6118 52.6485 12.6844 52.4394 12.6844C50.8101 12.6844 49.1832 12.6844 47.5539 12.6844C47.2354 12.6844 47.2767 12.5149 47.2791 12.3188C47.3488 9.64333 48.2686 7.0588 49.9063 4.93674C51.544 2.81468 53.8152 1.26438 56.3935 0.508739C56.9049 0.358004 57.4256 0.240711 57.9523 0.157611C58.5982 0.048908 59.2524 -0.00375716 59.9075 0.000208279Z"
                fill="#98D801"
              />
              <path
                d="M65.4835 30.4584H62.3221C61.4224 30.4584 60.5226 30.4584 59.6228 30.4584C59.5231 30.467 59.4228 30.4491 59.3323 30.4065C59.2417 30.364 59.1641 30.2983 59.1073 30.2162C58.1662 29.0054 57.2056 27.7946 56.2743 26.5838C56.0627 26.3078 55.98 26.3635 55.7879 26.5984C54.8419 27.8237 53.8789 29.0393 52.9281 30.2622C52.8874 30.3275 52.8304 30.381 52.7626 30.4175C52.6947 30.4541 52.6185 30.4723 52.5414 30.4705C50.6082 30.4705 48.6773 30.4705 46.744 30.4705C46.6933 30.4645 46.643 30.4556 46.5933 30.4438C46.7878 30.2017 46.9629 29.9765 47.1428 29.7585C49.0024 27.4984 50.8667 25.2383 52.736 22.9781C52.9111 22.7674 52.826 22.6561 52.6995 22.4938C51.0556 20.3677 49.4141 18.2407 47.7751 16.113C47.6525 15.9993 47.5633 15.8545 47.5173 15.694H48.4657C50.0197 15.694 51.576 15.694 53.1324 15.694C53.2319 15.6843 53.3322 15.7017 53.4226 15.7444C53.513 15.787 53.59 15.8533 53.6455 15.9362C54.3458 16.9048 55.0656 17.8347 55.7782 18.7815C56.0335 19.1206 56.0335 19.1206 56.2986 18.7815C57.0103 17.8355 57.7228 16.8871 58.4361 15.9362C58.476 15.8629 58.535 15.8017 58.6069 15.7591C58.6788 15.7165 58.761 15.694 58.8447 15.694C60.705 15.694 62.5629 15.694 64.4232 15.694C64.4749 15.7014 64.526 15.7119 64.5764 15.7255C64.4718 15.8684 64.3867 15.9919 64.2943 16.1105C62.6577 18.2125 61.0381 20.341 59.3821 22.4405C59.3387 22.4786 59.3042 22.5257 59.2812 22.5785C59.2581 22.6312 59.247 22.6884 59.2486 22.746C59.2503 22.8035 59.2646 22.86 59.2906 22.9114C59.3166 22.9629 59.3536 23.0079 59.3991 23.0435C61.3446 25.4021 63.29 27.7672 65.2354 30.1387C65.3035 30.2211 65.3668 30.3058 65.4835 30.4584Z"
                fill="white"
              />
              <path
                d="M67.2539 23.0921C67.2539 20.7383 67.2539 18.3821 67.2539 16.0284C67.2539 15.7378 67.3366 15.6676 67.6187 15.67C69.0875 15.6845 70.5579 15.6845 72.03 15.67C72.3242 15.67 72.3899 15.7572 72.3899 16.0356C72.3899 20.7174 72.3899 25.4031 72.3899 30.0929C72.3899 30.3593 72.3461 30.4682 72.0397 30.4658C70.5563 30.448 69.0737 30.448 67.5919 30.4658C67.3123 30.4658 67.2539 30.3883 67.2539 30.1244C67.2563 27.7779 67.2539 25.4265 67.2539 23.0921Z"
                fill="white"
              />
              <path
                d="M60.4157 35.5201C60.3568 35.6583 60.3375 35.81 60.3598 35.9585C60.3598 37.2613 60.3598 38.5665 60.3598 39.8717C60.3598 40.1139 60.3209 40.2325 60.0266 40.2301C59.1658 40.2301 59.1658 40.2301 59.1658 39.3874C59.1658 37.5397 59.1658 35.6897 59.1658 33.842C59.1658 33.5611 59.2412 33.503 59.5232 33.4715C60.0996 33.4085 60.4425 33.6289 60.7805 34.0866C61.7046 35.3434 62.687 36.559 63.6476 37.7892C63.7108 37.8715 63.7789 37.949 63.8908 38.0991V37.6681C63.8908 36.375 63.8908 35.0843 63.8908 33.7936C63.8908 33.5684 63.937 33.4836 64.1874 33.4812C65.0702 33.4812 65.0702 33.4691 65.0702 34.3312C65.0702 36.1667 65.0702 38.0023 65.0702 39.8378C65.0702 40.1187 65.024 40.2204 64.703 40.2398C64.5028 40.2613 64.3006 40.2258 64.1198 40.1375C63.9391 40.0492 63.7871 39.9117 63.6816 39.741C62.6311 38.3268 61.5246 36.9465 60.4157 35.5201Z"
                fill="white"
              />
              <path
                d="M55.231 40.2221C54.5014 40.2221 53.75 40.2221 53.0083 40.2221C52.7846 40.2221 52.6849 40.181 52.6873 39.9291C52.697 37.8756 52.697 35.8221 52.6873 33.7686C52.6873 33.5555 52.7384 33.4732 52.9694 33.4756C54.4658 33.4853 55.9605 33.4853 57.4536 33.4756C57.653 33.4756 57.726 33.5241 57.7308 33.7347C57.7527 34.5411 57.7625 34.5411 56.9454 34.5411C56.0456 34.5411 55.1458 34.5411 54.2461 34.5411C54.0029 34.5411 53.8716 34.5823 53.891 34.8729C53.9141 35.2463 53.9141 35.6207 53.891 35.9941C53.891 36.2169 53.9543 36.2847 54.178 36.2822C55.1021 36.2701 56.0262 36.2822 56.9502 36.2701C57.2299 36.2701 57.2956 36.3549 57.2907 36.6188C57.2907 37.3453 57.2907 37.3453 56.5757 37.3453C55.7854 37.3453 54.9951 37.3453 54.2047 37.3453C53.981 37.3453 53.8764 37.3865 53.891 37.6383C53.9166 38.0367 53.9166 38.4362 53.891 38.8346C53.8692 39.13 53.9932 39.1615 54.2461 39.1591C55.3161 39.147 56.3861 39.1591 57.4536 39.147C57.7114 39.147 57.7795 39.2172 57.7746 39.469C57.7746 40.227 57.7746 40.227 57.0183 40.227L55.231 40.2221Z"
                fill="white"
              />
              <path
                d="M48.8573 40.31C47.9146 40.3107 46.9994 39.9941 46.2601 39.4116C46.1094 39.2953 46.051 39.2009 46.2066 39.0411C46.3623 38.8812 46.5228 38.5568 46.7416 38.4647C46.9605 38.3727 47.1502 38.7069 47.3642 38.8207C47.917 39.1589 48.5677 39.303 49.2123 39.23C49.4065 39.2115 49.593 39.1449 49.7546 39.0362C49.8663 38.9679 49.9578 38.8714 50.0198 38.7564C50.0818 38.6415 50.1121 38.5122 50.1077 38.3818C50.1032 38.2514 50.0642 38.1245 49.9945 38.014C49.9248 37.9035 49.8269 37.8134 49.7109 37.7528C49.3189 37.5589 48.9013 37.4211 48.4706 37.3436C48.0818 37.2497 47.7018 37.1225 47.335 36.9634C45.9148 36.3265 46.1191 34.4788 47.0748 33.8492C48.0305 33.2196 48.9789 33.2947 49.9759 33.6071C50.3096 33.7214 50.6244 33.8846 50.9097 34.0914C51.0702 34.1979 51.0848 34.2875 50.9657 34.4377C50.7954 34.6435 50.6909 34.9535 50.4793 35.0527C50.2677 35.152 50.0586 34.8469 49.8325 34.75C49.2999 34.5079 48.7625 34.3481 48.1764 34.5079C48.0064 34.5347 47.8505 34.618 47.7339 34.7441C47.6174 34.8703 47.5471 35.0319 47.5344 35.2029C47.5004 35.6024 47.7192 35.8276 48.0597 35.9802C48.4196 36.1261 48.7914 36.2411 49.171 36.3241C49.5131 36.4057 49.8475 36.5167 50.1705 36.6558C50.9 36.9827 51.3207 37.5082 51.2964 38.3509C51.3031 38.7288 51.1921 39.0995 50.9788 39.4122C50.7654 39.7248 50.4601 39.9639 50.1048 40.0969C49.7101 40.2597 49.2839 40.3325 48.8573 40.31Z"
                fill="white"
              />
            </g>
            <defs>
              <clipPath id="clip0_9631_4519">
                <rect width="72.9394" height="40.312" fill="white" />
              </clipPath>
            </defs>
          </svg>