<svg width="22" height="22" viewBox="0 0 17 17" fill="none" xmlns="http://www.w3.org/2000/svg">
<path d="M16.3028 6.82568C16.6688 6.48893 16.8761 6.01972 16.8761 5.5286C16.8761 5.03749 16.6688 4.56828 16.3028 4.23153L12.5016 0.522191C12.1445 0.18697 11.6677 0 11.1722 0C10.6767 0 10.2 0.187479 9.84287 0.522191L0.549814 9.59813C0.197369 9.94252 0 10.4087 0 10.8952C0 11.3817 0.197891 11.8484 0.549814 12.1923L4.3416 15.9011C4.3416 15.9011 4.67002 16.1757 5.01359 16.4625C5.42974 16.8095 5.95919 17 6.50639 17H16.2934C16.6636 17 16.9831 16.7223 16.9993 16.3617C17.0166 15.9785 16.7033 15.6627 16.3148 15.6627H7.22329C7.22329 15.6627 7.22016 15.6601 7.22172 15.6586L16.3028 6.82466V6.82568ZM1.53666 11.2386C1.33825 11.044 1.33825 10.7291 1.53666 10.5345L6.16752 6.03347C6.16752 6.03347 6.17013 6.03245 6.17065 6.03347L10.672 10.4077C10.672 10.4077 10.6731 10.4102 10.672 10.4107L6.04064 14.9469C5.83909 15.1359 5.52059 15.1359 5.31904 14.9469L1.53666 11.2386Z" fill="white"/>
</svg>
