<svg width="22" height="22" viewBox="0 0 20 18" fill="none" xmlns="http://www.w3.org/2000/svg">
<path d="M9.0332 0.000612134C8.95819 -0.00184217 8.88206 0.00287028 8.80469 0.0186293L0.804688 1.66019C0.336688 1.75654 0 2.17624 0 2.66515V15.3332C0 15.8221 0.336688 16.2418 0.804688 16.3382L8.80469 17.9797C9.42369 18.1068 10 17.6195 10 16.9728V1.02559C10 0.459674 9.55833 0.0177925 9.0332 0.000612134ZM12 1.82435V3.8743H14V5.92426H12V7.97421H14V10.0242H12V12.0741H14V14.1241H12V16.174H19C19.552 16.174 20 15.7148 20 15.149V2.84933C20 2.28354 19.552 1.82435 19 1.82435H12ZM16 3.8743H18V5.92426H16V3.8743ZM3.4375 5.20357C3.7495 5.20357 4.03234 5.39684 4.15234 5.69204L4.87695 7.47373C4.95195 7.65925 5.00841 7.8744 5.06641 8.11835H5.0918C5.1248 7.97178 5.19197 7.74784 5.29297 7.45572L6.13281 5.61997C6.24881 5.36577 6.49748 5.20357 6.77148 5.20357C7.30348 5.20357 7.64448 5.78284 7.39648 6.26458L6.00781 8.96516L7.41406 11.6637C7.67806 12.1762 7.31795 12.7948 6.75195 12.7948C6.45995 12.7948 6.19231 12.621 6.07031 12.3484L5.1582 10.3184C5.1162 10.2313 5.06639 10.0579 5.02539 9.81396H5.00977C4.98477 9.93081 4.93437 10.1057 4.85938 10.3405L3.92773 12.3784C3.81173 12.6326 3.56111 12.7948 3.28711 12.7948H3.20117C2.66217 12.7948 2.32103 12.2005 2.58203 11.7178L4.06055 8.99318L2.74805 6.35667C2.48605 5.82881 2.8595 5.20357 3.4375 5.20357ZM16 7.97421H18V10.0242H16V7.97421ZM16 12.0741H18V14.1241H16V12.0741Z" fill="white"/>
</svg>
