 <svg
              width="30"
              height="26"
              viewBox="0 0 38 26"
              fill="none"
              xmlns="http://www.w3.org/2000/svg"
            >
              <path
                d="M25.996 25V17.152H30.724V18.328H27.388V20.332H30.208V21.508H27.388V23.824H30.844V25H25.996ZM34.745 25.144C34.217 25.144 33.705 25.044 33.209 24.844C32.721 24.644 32.289 24.36 31.913 23.992L32.729 23.044C33.009 23.308 33.329 23.524 33.689 23.692C34.049 23.852 34.409 23.932 34.769 23.932C35.217 23.932 35.557 23.84 35.789 23.656C36.021 23.472 36.137 23.228 36.137 22.924C36.137 22.596 36.021 22.36 35.789 22.216C35.565 22.072 35.277 21.924 34.925 21.772L33.845 21.304C33.589 21.192 33.337 21.048 33.089 20.872C32.849 20.696 32.649 20.472 32.489 20.2C32.337 19.928 32.261 19.6 32.261 19.216C32.261 18.8 32.373 18.428 32.597 18.1C32.829 17.764 33.141 17.5 33.533 17.308C33.933 17.108 34.389 17.008 34.901 17.008C35.357 17.008 35.797 17.1 36.221 17.284C36.645 17.46 37.009 17.7 37.313 18.004L36.605 18.892C36.357 18.684 36.093 18.52 35.813 18.4C35.541 18.28 35.237 18.22 34.901 18.22C34.533 18.22 34.233 18.304 34.001 18.472C33.777 18.632 33.665 18.856 33.665 19.144C33.665 19.344 33.721 19.512 33.833 19.648C33.953 19.776 34.109 19.888 34.301 19.984C34.493 20.072 34.697 20.16 34.913 20.248L35.981 20.692C36.445 20.892 36.825 21.156 37.121 21.484C37.417 21.804 37.565 22.248 37.565 22.816C37.565 23.24 37.453 23.628 37.229 23.98C37.005 24.332 36.681 24.616 36.257 24.832C35.841 25.04 35.337 25.144 34.745 25.144Z"
                fill="white"
              />
              <path
                fill-rule="evenodd"
                clip-rule="evenodd"
                d="M9.76536 2.74812C5.91324 3.85708 2.97411 7.25134 2.38203 11.4395H7.06808C7.32301 8.34048 8.25183 5.36232 9.76536 2.74812ZM11.6639 0.0286206C5.15192 0.475884 0.00275849 6.10948 0 12.9945V12.9995C0 20.1792 5.59644 26 12.5 26C12.5007 26 12.5014 26 12.502 26C19.4047 25.9988 25 20.179 25 13C25 6.1125 19.8498 0.476004 13.3361 0.0286207C13.3281 0.0190727 13.3202 0.00953249 13.3122 0L13.2867 0.0253318C13.0266 0.00852731 12.7642 0 12.5 0C12.2358 0 11.9734 0.00852731 11.7133 0.0253318L11.6878 0C11.6798 0.00953249 11.6719 0.0190727 11.6639 0.0286206ZM15.2346 2.74812C16.7482 5.36232 17.677 8.34048 17.9319 11.4395H22.618C22.0259 7.25134 19.0868 3.85708 15.2346 2.74812ZM15.7218 11.4395C15.422 8.24533 14.3055 5.20592 12.5 2.66931C10.6945 5.20592 9.57804 8.24533 9.27816 11.4395H15.7218ZM9.31886 14.5595H15.6811C15.3299 17.6108 14.2319 20.5068 12.5 22.9401C10.7681 20.5068 9.67013 17.6108 9.31886 14.5595ZM7.10372 14.5595H2.38187C2.98778 18.8485 6.05517 22.3051 10.0439 23.3277C8.4321 20.7117 7.42066 17.7035 7.10372 14.5595ZM14.9561 23.3277C16.5679 20.7117 17.5793 17.7035 17.8963 14.5595H22.6181C22.0122 18.8485 18.9448 22.3051 14.9561 23.3277Z"
                fill="white"
              />
            </svg>